<?xml version="1.0" encoding="UTF-8" standalone="no"?>
<!DOCTYPE svg PUBLIC "-//W3C//DTD SVG 1.1//EN" "http://www.w3.org/Graphics/SVG/1.1/DTD/svg11.dtd">
<svg version="1.1" xmlns="http://www.w3.org/2000/svg" xmlns:xlink="http://www.w3.org/1999/xlink" preserveAspectRatio="xMidYMid meet" viewBox="0 0 640 640" width="640" height="640"><defs><path d="M0.4 118.82L0.7 116.69L1.08 114.59L1.55 112.53L2.1 110.49L2.72 108.49L3.42 106.52L4.19 104.58L5.04 102.69L5.95 100.83L6.94 99.02L7.99 97.25L9.11 95.52L10.29 93.85L11.54 92.22L12.84 90.63L14.2 89.11L15.62 87.63L17.1 86.21L18.63 84.85L20.21 83.54L21.84 82.3L23.52 81.12L25.24 80L27.01 78.95L28.83 77.96L30.68 77.04L32.58 76.2L34.51 75.42L36.48 74.73L38.48 74.1L40.52 73.56L42.59 73.09L44.68 72.7L46.81 72.4L48.96 72.18L51.14 72.05L53.33 72.01L586.67 72.01L588.86 72.05L591.04 72.18L593.19 72.4L595.31 72.7L597.41 73.09L599.48 73.56L601.52 74.1L603.52 74.73L605.49 75.42L607.42 76.2L609.32 77.04L611.17 77.96L612.99 78.95L614.76 80L616.48 81.12L618.16 82.3L619.79 83.54L621.37 84.85L622.9 86.21L624.37 87.63L625.8 89.11L627.16 90.63L628.46 92.22L629.71 93.85L630.89 95.52L632.01 97.25L633.06 99.02L634.04 100.83L634.96 102.69L635.81 104.58L636.58 106.52L637.28 108.49L637.9 110.49L638.45 112.53L638.92 114.59L639.3 116.69L639.6 118.82L639.82 120.97L639.96 123.14L640 125.34L640 480.91L639.96 483.1L639.82 485.28L639.6 487.43L639.3 489.55L638.92 491.65L638.45 493.72L637.9 495.76L637.28 497.76L636.58 499.73L635.81 501.66L634.96 503.56L634.04 505.41L633.06 507.22L632.01 509L630.89 510.72L629.71 512.4L628.46 514.03L627.16 515.61L625.8 517.14L624.37 518.61L622.9 520.03L621.37 521.4L619.79 522.7L618.16 523.95L616.48 525.13L614.76 526.25L612.99 527.3L611.17 528.29L609.32 529.2L607.42 530.05L605.49 530.82L603.52 531.52L601.52 532.14L599.48 532.69L597.41 533.16L595.32 533.54L593.19 533.84L591.04 534.06L588.86 534.2L586.67 534.24L373.33 534.24L391.11 587.58L471.11 587.58L472.21 587.6L473.3 587.66L474.38 587.77L475.45 587.92L476.5 588.11L477.54 588.35L478.56 588.62L479.56 588.93L480.54 589.28L481.51 589.66L482.46 590.09L483.39 590.54L484.3 591.03L485.18 591.56L486.04 592.12L486.88 592.71L487.7 593.33L488.49 593.98L489.25 594.66L489.99 595.37L490.7 596.1L491.38 596.87L492.03 597.66L492.65 598.47L493.24 599.31L493.79 600.17L494.32 601.06L494.81 601.97L495.27 602.89L495.69 603.84L496.07 604.81L496.42 605.79L496.73 606.8L497.01 607.82L497.24 608.85L497.43 609.9L497.58 610.97L497.69 612.05L497.76 613.14L497.78 614.24L497.76 615.35L497.69 616.44L497.58 617.51L497.43 618.58L497.24 619.63L497.01 620.67L496.73 621.69L496.42 622.69L496.07 623.68L495.69 624.64L495.27 625.59L494.81 626.52L494.32 627.43L493.79 628.31L493.24 629.17L492.65 630.01L492.03 630.83L491.38 631.62L490.7 632.38L489.99 633.12L489.25 633.83L488.49 634.51L487.7 635.16L486.88 635.78L486.04 636.37L485.18 636.93L484.3 637.45L483.39 637.94L482.46 638.4L481.51 638.82L480.54 639.21L479.56 639.56L478.56 639.87L477.54 640.14L476.5 640.37L475.45 640.56L474.38 640.71L473.3 640.82L472.21 640.89L471.11 640.91L168.89 640.91L167.79 640.89L166.7 640.82L165.62 640.71L164.55 640.56L163.5 640.37L162.46 640.14L161.44 639.87L160.44 639.56L159.46 639.21L158.49 638.82L157.54 638.4L156.61 637.94L155.7 637.45L154.82 636.93L153.96 636.37L153.12 635.78L152.3 635.16L151.51 634.51L150.75 633.83L150.01 633.12L149.3 632.38L148.62 631.62L147.97 630.83L147.35 630.01L146.76 629.17L146.21 628.31L145.68 627.43L145.19 626.52L144.73 625.59L144.31 624.64L143.93 623.68L143.58 622.69L143.27 621.69L142.99 620.67L142.76 619.63L142.57 618.58L142.42 617.51L142.31 616.44L142.24 615.35L142.22 614.24L142.24 613.14L142.31 612.05L142.42 610.97L142.57 609.9L142.76 608.85L142.99 607.82L143.27 606.8L143.58 605.79L143.93 604.81L144.31 603.84L144.73 602.89L145.19 601.97L145.68 601.06L146.21 600.17L146.76 599.31L147.35 598.47L147.97 597.66L148.62 596.87L149.3 596.1L150.01 595.37L150.75 594.66L151.51 593.98L152.3 593.33L153.12 592.71L153.96 592.12L154.82 591.56L155.7 591.03L156.61 590.54L157.54 590.09L158.49 589.66L159.46 589.28L160.44 588.93L161.44 588.62L162.46 588.35L163.5 588.11L164.55 587.92L165.62 587.77L166.7 587.66L167.79 587.6L168.89 587.58L248.89 587.58L266.67 534.24L53.33 534.24L51.14 534.2L48.96 534.06L46.81 533.84L44.68 533.54L42.59 533.16L40.52 532.69L38.48 532.14L36.48 531.52L34.51 530.82L32.58 530.05L30.68 529.2L28.83 528.29L27.01 527.3L25.24 526.25L23.52 525.13L21.84 523.95L20.21 522.7L18.63 521.4L17.1 520.03L15.62 518.61L14.2 517.14L12.84 515.61L11.54 514.03L10.29 512.4L9.11 510.72L7.99 509L6.94 507.22L5.95 505.41L5.04 503.56L4.19 501.66L3.42 499.73L2.72 497.76L2.1 495.76L1.55 493.72L1.08 491.65L0.7 489.55L0.4 487.43L0.18 485.28L0.04 483.1L0 480.91L0 463.13L568.89 463.13L568.89 142.29L0 142.29L0 125.34L0.04 123.14L0.18 120.97L0.4 118.82Z" id="i57yHcCcb"></path><path d="M0.4 118.82L0.7 116.69L1.08 114.59L1.55 112.53L2.1 110.49L2.72 108.49L3.42 106.52L4.19 104.58L5.04 102.69L5.95 100.83L6.94 99.02L7.99 97.25L9.11 95.52L10.29 93.85L11.54 92.22L12.84 90.63L14.2 89.11L15.62 87.63L17.1 86.21L18.63 84.85L20.21 83.54L21.84 82.3L23.52 81.12L25.24 80L27.01 78.95L28.83 77.96L30.68 77.04L32.58 76.2L34.51 75.42L36.48 74.73L38.48 74.1L40.52 73.56L42.59 73.09L44.68 72.7L46.81 72.4L48.96 72.18L51.14 72.05L53.33 72.01L586.67 72.01L588.86 72.05L591.04 72.18L593.19 72.4L595.31 72.7L597.41 73.09L599.48 73.56L601.52 74.1L603.52 74.73L605.49 75.42L607.42 76.2L609.32 77.04L611.17 77.96L612.99 78.95L614.76 80L616.48 81.12L618.16 82.3L619.79 83.54L621.37 84.85L622.9 86.21L624.37 87.63L625.8 89.11L627.16 90.63L628.46 92.22L629.71 93.85L630.89 95.52L632.01 97.25L633.06 99.02L634.04 100.83L634.96 102.69L635.81 104.58L636.58 106.52L637.28 108.49L637.9 110.49L638.45 112.53L638.92 114.59L639.3 116.69L639.6 118.82L639.82 120.97L639.96 123.14L640 125.34L640 480.91L639.96 483.1L639.82 485.28L639.6 487.43L639.3 489.55L638.92 491.65L638.45 493.72L637.9 495.76L637.28 497.76L636.58 499.73L635.81 501.66L634.96 503.56L634.04 505.41L633.06 507.22L632.01 509L630.89 510.72L629.71 512.4L628.46 514.03L627.16 515.61L625.8 517.14L624.37 518.61L622.9 520.03L621.37 521.4L619.79 522.7L618.16 523.95L616.48 525.13L614.76 526.25L612.99 527.3L611.17 528.29L609.32 529.2L607.42 530.05L605.49 530.82L603.52 531.52L601.52 532.14L599.48 532.69L597.41 533.16L595.32 533.54L593.19 533.84L591.04 534.06L588.86 534.2L586.67 534.24L373.33 534.24L391.11 587.58L471.11 587.58L472.21 587.6L473.3 587.66L474.38 587.77L475.45 587.92L476.5 588.11L477.54 588.35L478.56 588.62L479.56 588.93L480.54 589.28L481.51 589.66L482.46 590.09L483.39 590.54L484.3 591.03L485.18 591.56L486.04 592.12L486.88 592.71L487.7 593.33L488.49 593.98L489.25 594.66L489.99 595.37L490.7 596.1L491.38 596.87L492.03 597.66L492.65 598.47L493.24 599.31L493.79 600.17L494.32 601.06L494.81 601.97L495.27 602.89L495.69 603.84L496.07 604.81L496.42 605.79L496.73 606.8L497.01 607.82L497.24 608.85L497.43 609.9L497.58 610.97L497.69 612.05L497.76 613.14L497.78 614.24L497.76 615.35L497.69 616.44L497.58 617.51L497.43 618.58L497.24 619.63L497.01 620.67L496.73 621.69L496.42 622.69L496.07 623.68L495.69 624.64L495.27 625.59L494.81 626.52L494.32 627.43L493.79 628.31L493.24 629.17L492.65 630.01L492.03 630.83L491.38 631.62L490.7 632.38L489.99 633.12L489.25 633.83L488.49 634.51L487.7 635.16L486.88 635.78L486.04 636.37L485.18 636.93L484.3 637.45L483.39 637.94L482.46 638.4L481.51 638.82L480.54 639.21L479.56 639.56L478.56 639.87L477.54 640.14L476.5 640.37L475.45 640.56L474.38 640.71L473.3 640.82L472.21 640.89L471.11 640.91L168.89 640.91L167.79 640.89L166.7 640.82L165.62 640.71L164.55 640.56L163.5 640.37L162.46 640.14L161.44 639.87L160.44 639.56L159.46 639.21L158.49 638.82L157.54 638.4L156.61 637.94L155.7 637.45L154.82 636.93L153.96 636.37L153.12 635.78L152.3 635.16L151.51 634.51L150.75 633.83L150.01 633.12L149.3 632.38L148.62 631.62L147.97 630.83L147.35 630.01L146.76 629.17L146.21 628.31L145.68 627.43L145.19 626.52L144.73 625.59L144.31 624.64L143.93 623.68L143.58 622.69L143.27 621.69L142.99 620.67L142.76 619.63L142.57 618.58L142.42 617.51L142.31 616.44L142.24 615.35L142.22 614.24L142.24 613.14L142.31 612.05L142.42 610.97L142.57 609.9L142.76 608.85L142.99 607.82L143.27 606.8L143.58 605.79L143.93 604.81L144.31 603.84L144.73 602.89L145.19 601.97L145.68 601.06L146.21 600.17L146.76 599.31L147.35 598.47L147.97 597.66L148.62 596.87L149.3 596.1L150.01 595.37L150.75 594.66L151.51 593.98L152.3 593.33L153.12 592.71L153.96 592.12L154.82 591.56L155.7 591.03L156.61 590.54L157.54 590.09L158.49 589.66L159.46 589.28L160.44 588.93L161.44 588.62L162.46 588.35L163.5 588.11L164.55 587.92L165.62 587.77L166.7 587.66L167.79 587.6L168.89 587.58L248.89 587.58L266.67 534.24L53.33 534.24L51.14 534.2L48.96 534.06L46.81 533.84L44.68 533.54L42.59 533.16L40.52 532.69L38.48 532.14L36.48 531.52L34.51 530.82L32.58 530.05L30.68 529.2L28.83 528.29L27.01 527.3L25.24 526.25L23.52 525.13L21.84 523.95L20.21 522.7L18.63 521.4L17.1 520.03L15.62 518.61L14.2 517.14L12.84 515.61L11.54 514.03L10.29 512.4L9.11 510.72L7.99 509L6.94 507.22L5.95 505.41L5.04 503.56L4.19 501.66L3.42 499.73L2.72 497.76L2.1 495.76L1.55 493.72L1.08 491.65L0.7 489.55L0.4 487.43L0.18 485.28L0.04 483.1L0 480.91L0 463.13C295.86 463.13 480.77 463.13 554.73 463.13C562.55 463.13 568.89 456.79 568.89 448.97C568.89 387.64 568.89 218.26 568.89 157.05C568.89 148.9 562.28 142.29 554.13 142.29C480.25 142.29 295.54 142.29 0 142.29L0 125.34L0.04 123.14L0.18 120.97L0.4 118.82Z" id="ae7BYIxFj"></path><path d="M209.17 187.71L209.68 187.8L210.18 187.9L210.68 188.02L211.18 188.16L211.67 188.32L212.16 188.49L212.63 188.69L213.11 188.9L213.57 189.13L214.03 189.39L214.48 189.66L214.92 189.94L215.35 190.25L215.77 190.58L216.18 190.92L216.57 191.28L229.19 203.28L229.57 203.66L229.93 204.04L230.27 204.44L230.59 204.85L230.9 205.27L231.18 205.69L231.44 206.13L231.69 206.57L231.91 207.02L232.12 207.47L232.3 207.94L232.47 208.4L232.62 208.87L232.74 209.35L232.85 209.82L232.94 210.31L233.01 210.79L233.06 211.27L233.09 211.76L233.1 212.25L233.09 212.73L233.06 213.22L233.01 213.7L232.95 214.19L232.86 214.67L232.75 215.15L232.63 215.62L232.48 216.09L232.31 216.56L232.13 217.02L231.93 217.48L231.7 217.93L231.46 218.37L231.2 218.8L230.91 219.23L230.61 219.65L230.29 220.06L229.95 220.46L229.59 220.84L229.21 221.22L143.5 303.12L229.21 385.02L229.59 385.4L229.95 385.79L230.29 386.19L230.61 386.6L230.91 387.01L231.2 387.44L231.46 387.88L231.7 388.32L231.93 388.77L232.13 389.22L232.31 389.68L232.48 390.15L232.63 390.62L232.75 391.1L232.86 391.57L232.95 392.05L233.01 392.54L233.06 393.02L233.09 393.51L233.1 394L233.09 394.48L233.06 394.97L233.01 395.45L232.94 395.94L232.85 396.42L232.74 396.9L232.62 397.37L232.47 397.84L232.3 398.31L232.12 398.77L231.91 399.22L231.69 399.67L231.44 400.11L231.18 400.55L230.9 400.97L230.59 401.39L230.27 401.8L229.93 402.2L229.57 402.59L229.19 402.96L216.57 414.96L216.18 415.32L215.77 415.67L215.35 415.99L214.92 416.3L214.48 416.59L214.03 416.86L213.57 417.11L213.11 417.34L212.63 417.55L212.16 417.75L211.67 417.93L211.18 418.08L210.68 418.22L210.18 418.35L209.68 418.45L209.17 418.53L208.66 418.6L208.15 418.64L207.64 418.67L207.13 418.68L206.62 418.67L206.1 418.64L205.59 418.6L205.09 418.53L204.58 418.45L204.08 418.35L203.58 418.22L203.08 418.08L202.59 417.93L202.1 417.75L201.62 417.55L201.15 417.34L200.69 417.11L200.23 416.86L199.78 416.59L199.34 416.3L198.91 415.99L198.49 415.67L198.08 415.32L197.69 414.96L89.54 312.1L89.16 311.73L88.8 311.34L88.45 310.94L88.13 310.53L87.83 310.11L87.54 309.68L87.28 309.25L87.04 308.81L86.81 308.36L86.61 307.9L86.42 307.44L86.25 306.97L86.11 306.5L85.98 306.03L85.87 305.55L85.78 305.07L85.72 304.58L85.67 304.1L85.64 303.61L85.63 303.12L85.64 302.63L85.67 302.15L85.72 301.66L85.78 301.18L85.87 300.7L85.98 300.22L86.11 299.74L86.25 299.27L86.42 298.8L86.61 298.34L86.81 297.89L87.04 297.44L87.28 296.99L87.54 296.56L87.83 296.13L88.13 295.71L88.45 295.31L88.8 294.91L89.16 294.52L89.54 294.14L197.69 191.28L198.08 190.92L198.49 190.58L198.91 190.25L199.34 189.94L199.78 189.66L200.23 189.39L200.69 189.13L201.15 188.9L201.63 188.69L202.1 188.49L202.59 188.32L203.08 188.16L203.58 188.02L204.08 187.9L204.58 187.8L205.09 187.71L205.59 187.65L206.11 187.6L206.62 187.57L207.13 187.56L207.64 187.57L208.15 187.6L208.67 187.65L209.17 187.71Z" id="bdJct6siU"></path><path d="M209.17 187.71L209.68 187.8L210.18 187.9L210.68 188.02L211.18 188.16L211.67 188.32L212.16 188.49L212.63 188.69L213.11 188.9L213.57 189.13L214.03 189.39L214.48 189.66L214.92 189.94L215.35 190.25L215.77 190.58L216.18 190.92L216.57 191.28L229.19 203.28L229.57 203.66L229.93 204.04L230.27 204.44L230.59 204.85L230.9 205.27L231.18 205.69L231.44 206.13L231.69 206.57L231.91 207.02L232.12 207.47L232.3 207.94L232.47 208.4L232.62 208.87L232.74 209.35L232.85 209.82L232.94 210.31L233.01 210.79L233.06 211.27L233.09 211.76L233.1 212.25L233.09 212.73L233.06 213.22L233.01 213.7L232.95 214.19L232.86 214.67L232.75 215.15L232.63 215.62L232.48 216.09L232.31 216.56L232.13 217.02L231.93 217.48L231.7 217.93L231.46 218.37L231.2 218.8L230.91 219.23L230.61 219.65L230.29 220.06L229.95 220.46L229.59 220.84L229.21 221.22L143.5 303.12L229.21 385.02L229.59 385.4L229.95 385.79L230.29 386.19L230.61 386.6L230.91 387.01L231.2 387.44L231.46 387.88L231.7 388.32L231.93 388.77L232.13 389.22L232.31 389.68L232.48 390.15L232.63 390.62L232.75 391.1L232.86 391.57L232.95 392.05L233.01 392.54L233.06 393.02L233.09 393.51L233.1 394L233.09 394.48L233.06 394.97L233.01 395.45L232.94 395.94L232.85 396.42L232.74 396.9L232.62 397.37L232.47 397.84L232.3 398.31L232.12 398.77L231.91 399.22L231.69 399.67L231.44 400.11L231.18 400.55L230.9 400.97L230.59 401.39L230.27 401.8L229.93 402.2L229.57 402.59L229.19 402.96L216.57 414.96L216.18 415.32L215.77 415.67L215.35 415.99L214.92 416.3L214.48 416.59L214.03 416.86L213.57 417.11L213.11 417.34L212.63 417.55L212.16 417.75L211.67 417.93L211.18 418.08L210.68 418.22L210.18 418.35L209.68 418.45L209.17 418.53L208.66 418.6L208.15 418.64L207.64 418.67L207.13 418.68L206.62 418.67L206.1 418.64L205.59 418.6L205.09 418.53L204.58 418.45L204.08 418.35L203.58 418.22L203.08 418.08L202.59 417.93L202.1 417.75L201.62 417.55L201.15 417.34L200.69 417.11L200.23 416.86L199.78 416.59L199.34 416.3L198.91 415.99L198.49 415.67L198.08 415.32L197.69 414.96L89.54 312.1L89.16 311.73L88.8 311.34L88.45 310.94L88.13 310.53L87.83 310.11L87.54 309.68L87.28 309.25L87.04 308.81L86.81 308.36L86.61 307.9L86.42 307.44L86.25 306.97L86.11 306.5L85.98 306.03L85.87 305.55L85.78 305.07L85.72 304.58L85.67 304.1L85.64 303.61L85.63 303.12L85.64 302.63L85.67 302.15L85.72 301.66L85.78 301.18L85.87 300.7L85.98 300.22L86.11 299.74L86.25 299.27L86.42 298.8L86.61 298.34L86.81 297.89L87.04 297.44L87.28 296.99L87.54 296.56L87.83 296.13L88.13 295.71L88.45 295.31L88.8 294.91L89.16 294.52L89.54 294.14L197.69 191.28L198.08 190.92L198.49 190.58L198.91 190.25L199.34 189.94L199.78 189.66L200.23 189.39L200.69 189.13L201.15 188.9L201.63 188.69L202.1 188.49L202.59 188.32L203.08 188.16L203.58 188.02L204.08 187.9L204.58 187.8L205.09 187.71L205.59 187.65L206.11 187.6L206.62 187.57L207.13 187.56L207.64 187.57L208.15 187.6L208.67 187.65L209.17 187.71Z" id="c6ulQFjKIr"></path><path d="M510.43 403.51C510.43 411.89 504.23 418.68 496.59 418.68C455 418.68 344.04 418.68 302.45 418.68C294.81 418.68 288.61 411.89 288.61 403.51C288.61 399.41 288.61 402.26 288.61 398.16C288.61 389.78 294.81 382.98 302.45 382.98C344.04 382.98 455 382.98 496.59 382.98C504.23 382.98 510.43 389.78 510.43 398.16C510.43 402.26 510.43 399.41 510.43 403.51Z" id="a1SU9XertQ"></path><path d="M510.43 403.51C510.43 411.89 504.23 418.68 496.59 418.68C455 418.68 344.04 418.68 302.45 418.68C294.81 418.68 288.61 411.89 288.61 403.51C288.61 399.41 288.61 402.26 288.61 398.16C288.61 389.78 294.81 382.98 302.45 382.98C344.04 382.98 455 382.98 496.59 382.98C504.23 382.98 510.43 389.78 510.43 398.16C510.43 402.26 510.43 399.41 510.43 403.51Z" id="ciw3Uuqrx"></path><path d="M60 411.82C60 420.52 52.95 427.57 44.25 427.57C35.4 427.57 24.6 427.57 15.75 427.57C7.05 427.57 0 420.52 0 411.82C0 365.19 0 241.05 0 194.42C0 185.72 7.05 178.67 15.75 178.67C24.6 178.67 35.4 178.67 44.25 178.67C52.95 178.67 60 185.72 60 194.42C60 241.05 60 365.19 60 411.82Z" id="a7PhTKRDEx"></path><path d="M60 411.82C60 420.52 52.95 427.57 44.25 427.57C35.4 427.57 24.6 427.57 15.75 427.57C7.05 427.57 0 420.52 0 411.82C0 365.19 0 241.05 0 194.42C0 185.72 7.05 178.67 15.75 178.67C24.6 178.67 35.4 178.67 44.25 178.67C52.95 178.67 60 185.72 60 194.42C60 241.05 60 365.19 60 411.82Z" id="bpcits4qa"></path><path d="M60 411.82C60 420.52 52.95 427.57 44.25 427.57C35.4 427.57 24.6 427.57 15.75 427.57C7.05 427.57 0 420.52 0 411.82C0 365.19 0 241.05 0 194.42C0 185.72 7.05 178.67 15.75 178.67C24.6 178.67 35.4 178.67 44.25 178.67C52.95 178.67 60 185.72 60 194.42C60 241.05 60 365.19 60 411.82Z" id="a1I5Lgt6B"></path><path d="M60 411.82C60 420.52 52.95 427.57 44.25 427.57C35.4 427.57 24.6 427.57 15.75 427.57C7.05 427.57 0 420.52 0 411.82C0 365.19 0 241.05 0 194.42C0 185.72 7.05 178.67 15.75 178.67C24.6 178.67 35.4 178.67 44.25 178.67C52.95 178.67 60 185.72 60 194.42C60 241.05 60 365.19 60 411.82Z" id="bqlkx6sYY"></path></defs><g><g><g><use xlink:href="#i57yHcCcb" opacity="1" fill="#ffffff" fill-opacity="1"></use><g><use xlink:href="#i57yHcCcb" opacity="1" fill-opacity="0" stroke="#ffffff" stroke-width="1" stroke-opacity="1"></use></g></g><g><use xlink:href="#ae7BYIxFj" opacity="1" fill="#ffffff" fill-opacity="1"></use><g><use xlink:href="#ae7BYIxFj" opacity="1" fill-opacity="0" stroke="#ffffff" stroke-width="1" stroke-opacity="1"></use></g></g><g><use xlink:href="#bdJct6siU" opacity="1" fill="#ffffff" fill-opacity="1"></use><g><use xlink:href="#bdJct6siU" opacity="1" fill-opacity="0" stroke="#ffffff" stroke-width="1" stroke-opacity="1"></use></g></g><g><use xlink:href="#c6ulQFjKIr" opacity="1" fill="#ffffff" fill-opacity="1"></use><g><use xlink:href="#c6ulQFjKIr" opacity="1" fill-opacity="0" stroke="#ffffff" stroke-width="9" stroke-opacity="1"></use></g></g><g><use xlink:href="#a1SU9XertQ" opacity="1" fill="#ffffff" fill-opacity="1"></use><g><use xlink:href="#a1SU9XertQ" opacity="1" fill-opacity="0" stroke="#ffffff" stroke-width="1" stroke-opacity="1"></use></g></g><g><use xlink:href="#ciw3Uuqrx" opacity="1" fill="#ffffff" fill-opacity="1"></use><g><use xlink:href="#ciw3Uuqrx" opacity="1" fill-opacity="0" stroke="#ffffff" stroke-width="8" stroke-opacity="1"></use></g></g><g><use xlink:href="#a7PhTKRDEx" opacity="1" fill="#ffffff" fill-opacity="1"></use><g><use xlink:href="#a7PhTKRDEx" opacity="1" fill-opacity="0" stroke="#ffffff" stroke-width="1" stroke-opacity="1"></use></g></g><g><use xlink:href="#bpcits4qa" opacity="1" fill="#ffffff" fill-opacity="1"></use><g><use xlink:href="#bpcits4qa" opacity="1" fill-opacity="0" stroke="#ffffff" stroke-width="1" stroke-opacity="1"></use></g></g><g><use xlink:href="#a1I5Lgt6B" opacity="1" fill="#ffffff" fill-opacity="1"></use><g><use xlink:href="#a1I5Lgt6B" opacity="1" fill-opacity="0" stroke="#ffffff" stroke-width="1" stroke-opacity="1"></use></g></g><g><use xlink:href="#bqlkx6sYY" opacity="1" fill="#ffffff" fill-opacity="1"></use><g><use xlink:href="#bqlkx6sYY" opacity="1" fill-opacity="0" stroke="#ffffff" stroke-width="1" stroke-opacity="1"></use></g></g></g></g></svg>